<svg width="615" height="1152" viewBox="0 0 615 1152" fill="none" xmlns="http://www.w3.org/2000/svg">
<g opacity="0.75" clip-path="url(#clip0_235_929)">
<path opacity="0.35" d="M310.815 518.74V570.978H344.772L304.901 633.995V581.757H270.944L310.815 518.74ZM320.232 486.367L254.05 590.954H295.484V666.368L361.666 561.782H320.232V486.367Z" fill="#222F2F"/>
<path opacity="0.3" d="M348.482 389.248V534.191H412.329L385.698 576.294L319.516 680.881L267.233 763.506V618.563H203.387L230.018 576.46L296.2 471.873L348.482 389.248ZM357.899 356.875L288.195 467.036L222.013 571.622L186.493 627.742H257.816V795.879L327.52 685.719L393.702 581.132L429.223 525.013H357.899V356.875Z" fill="#222F2F"/>
<path opacity="0.25" d="M395.567 227.365V488.207H496.78L461.259 544.326L425.739 600.445L359.557 705.032L289.853 815.192L220.149 925.352V664.511H118.936L154.456 608.391L189.977 552.272L256.159 447.685L325.863 337.525L395.567 227.365ZM404.984 194.992L317.84 332.687L248.136 442.848L181.954 547.434L146.433 603.554L102.042 673.707H210.732V957.725L297.876 820.03L367.58 709.87L433.762 605.283L469.283 549.163L513.674 479.01H404.984V194.992Z" fill="#222F2F"/>
<path opacity="0.2" d="M452.069 33.1088V433.026H598.125L553.734 503.179L509.342 573.333L473.822 629.452L407.64 734.039L337.936 844.199L250.791 981.895L163.647 1119.59V719.674H17.5908L61.9822 649.52L106.374 579.366L141.894 523.247L208.076 418.66L277.78 308.5L364.924 170.804L452.069 33.1088ZM461.485 0.73584L356.92 165.985L269.776 303.681L200.072 413.841L133.89 518.428L98.3692 574.547L53.9778 644.701L0.696899 728.907H154.23V1152L258.796 986.751L345.94 849.055L415.644 738.895L481.826 634.308L517.347 578.189L561.738 508.035L615.019 423.847H461.485V0.73584Z" fill="#222F2F"/>
</g>
<defs>
<clipPath id="clip0_235_929">
<rect width="615" height="1152" fill="white"/>
</clipPath>
</defs>
</svg>
