<?xml version="1.0" encoding="UTF-8"?>
<svg id="WebCharged_Worded" data-name="WebCharged Worded" xmlns="http://www.w3.org/2000/svg" xmlns:xlink="http://www.w3.org/1999/xlink" viewBox="0 0 363.39 96.1">
  <defs>
    <style>
      .cls-1 {
        fill: url(#New_Gradient_Swatch);
      }

      .cls-2 {
        fill: #222f2f;
      }
    </style>
    <radialGradient id="New_Gradient_Swatch" data-name="New Gradient Swatch" cx="42.03" cy="48.05" fx="42.03" fy="48.05" r="26.13" gradientUnits="userSpaceOnUse">
      <stop offset="0" stop-color="#ff9d0a"/>
      <stop offset=".19" stop-color="#f79509"/>
      <stop offset=".48" stop-color="#e17f06"/>
      <stop offset=".83" stop-color="#bd5d02"/>
      <stop offset="1" stop-color="#aa4a00"/>
    </radialGradient>
  </defs>
  <g>
    <polygon class="cls-2" points="58.61 24.66 58.61 30.11 76.48 30.11 73.58 34.74 53.98 34.74 53.98 20.03 82.72 20.03 79.86 24.66 58.61 24.66"/>
    <polygon class="cls-2" points="30.07 61.36 30.07 77.28 0 77.28 9.85 61.34 15.28 61.35 8.3 72.65 16.77 72.65 16.77 61.37 21.4 61.37 21.4 72.65 25.45 72.65 25.45 61.36 30.07 61.36"/>
    <g>
      <polygon class="cls-1" points="40.46 50.98 22.42 50.98 43.6 16.72 43.6 45.12 61.63 45.12 40.46 79.37 40.46 50.98"/>
      <path class="cls-2" d="M70.15,40.37h-21.8V0L13.9,55.73h21.81v40.37s34.44-55.73,34.44-55.73ZM61.63,45.12l-21.17,34.25v-28.39h-18.04l21.18-34.26v28.4s18.03,0,18.03,0Z"/>
    </g>
  </g>
  <g>
    <g>
      <path class="cls-2" d="M169.86,53.79c-.15-2-1.01-3.97-2.57-5.85l-.11-.13.08-.14c.97-1.81,2.01-4.65,1.49-7.96-.78-4.89-4.44-8.56-8.9-8.93h-12.18v34.6h13.21c.75-.08,1.44-.23,2.07-.46l.77-.27,6.2-10.11-.06-.75h0ZM152.3,35.4h7.24c2.27.24,4.21,2.36,4.64,5.04.33,2.11-.41,4-1.1,5.22l-.07.13h-10.71v-10.39h0ZM160.7,60.72l-.17.03h-8.23v-10.33h11.01l.07.08c.9.99,1.48,1.96,1.73,2.87l.03.11-4.44,7.24Z"/>
      <polygon class="cls-2" points="125.47 35.39 125.47 45.81 142.06 45.81 142.06 50.44 125.47 50.44 125.47 60.74 142.06 60.74 142.06 65.37 120.85 65.37 120.85 30.77 142.06 30.77 142.06 35.39 125.47 35.39"/>
      <polygon class="cls-2" points="114.21 30.72 114.21 65.38 71.08 65.38 92.58 30.72 98.02 30.72 79.39 60.75 96.15 60.75 96.15 42.07 100.78 42.07 100.78 60.75 109.58 60.75 109.58 30.72 114.21 30.72"/>
    </g>
    <g>
      <polygon class="cls-2" points="319.93 35.38 319.93 45.79 336.52 45.79 336.52 50.42 319.93 50.42 319.93 60.73 336.52 60.73 336.52 65.35 315.31 65.35 315.31 30.75 336.52 30.75 336.52 35.38 319.93 35.38"/>
      <polygon class="cls-2" points="309.69 45.8 309.69 65.37 288.47 65.37 288.47 30.75 309.34 30.75 309.34 35.38 293.09 35.38 293.09 60.74 305.06 60.74 305.06 50.43 299.2 50.43 299.2 45.8 309.69 45.8"/>
      <polygon class="cls-2" points="228.72 30.73 228.72 65.37 224.1 65.37 224.1 50.39 212.11 50.39 212.11 65.37 207.49 65.37 207.49 30.73 212.11 30.73 212.11 45.77 224.1 45.77 224.1 30.73 228.72 30.73"/>
      <polygon class="cls-2" points="194.83 35.39 179.29 60.73 200.84 60.73 200.84 65.36 171.02 65.36 192.24 30.76 200.84 30.76 200.84 35.39 194.83 35.39"/>
      <path class="cls-2" d="M357.04,31.49l-.69-.73h-14.21v34.6h14.18l.69-.73c1.48-1.58,6.32-7.41,6.38-16.4.07-9.16-4.84-15.13-6.35-16.74ZM354.35,60.64l-.08.09h-7.5v-25.35h7.53l.07.1c1.66,2.05,4.44,6.44,4.4,12.72-.05,6.14-2.79,10.43-4.42,12.44Z"/>
      <polygon class="cls-2" points="255.67 65.37 250.91 65.37 245.04 40.53 239.16 65.37 234.4 65.37 242.59 30.72 247.47 30.72 255.67 65.37"/>
      <path class="cls-2" d="M277.29,50.08l.31-.24c.24-.18,5.71-4.36,4.91-10.09-.76-5.4-4.38-8.56-10.18-8.91-1.87-.1-3.73-.07-5.53-.04h-.31c-.93.02-1.86.04-2.78.04h-2.32v34.53h4.63v-15.06h6.44l5.36,15.06h4.91s-5.44-15.29-5.44-15.29ZM275.35,45.68h-9.33v-10.21l.22-.02c.12,0,.23-.02.34-.02,1.96-.04,3.73-.06,5.48.03,3.66.22,5.41,1.69,5.86,4.93.3,2.15-1.44,4.19-2.5,5.22l-.07.07Z"/>
    </g>
  </g>
</svg>