<?xml version="1.0" encoding="UTF-8"?>
<svg id="Regular_Logo" data-name="Regular Logo" xmlns="http://www.w3.org/2000/svg" xmlns:xlink="http://www.w3.org/1999/xlink" viewBox="0 0 363.38 97.86">
  <defs>
    <style>
      .cls-1 {
        fill: #ff9d0a;
      }

      .cls-2 {
        fill: url(#Lighter_Yellow_White);
      }
    </style>
    <radialGradient id="Lighter_Yellow_White" data-name="Lighter Yellow White" cx="42.87" cy="48.93" fx="42.87" fy="48.93" r="53.36" gradientUnits="userSpaceOnUse">
      <stop offset="0" stop-color="#fff7eb"/>
      <stop offset=".06" stop-color="#fff3e3"/>
      <stop offset=".16" stop-color="#ffebcd"/>
      <stop offset=".27" stop-color="#ffdca9"/>
      <stop offset=".4" stop-color="#ffc877"/>
      <stop offset=".55" stop-color="#ffaf38"/>
      <stop offset=".65" stop-color="#ff9d0a"/>
    </radialGradient>
  </defs>
  <g>
    <polygon class="cls-2" points="39.81 52.87 21.77 52.87 44.95 14.61 44.95 45.01 63.98 45.01 39.81 83.26 39.81 52.87"/>
    <path class="cls-1" d="M70.49,41.25h-21.8V.88L14.25,56.61h21.8v40.37l34.44-55.73ZM22.32,52.11l.24-.38,21.17-34.26.46-.75v29.03h18.23l-.23.38-21.18,34.26-.46.75v-29.03h-18.23Z"/>
    <polygon class="cls-1" points="58.95 30.99 76.83 30.99 73.92 35.62 54.32 35.62 54.32 20.91 83.06 20.91 80.2 25.54 58.95 25.54 58.95 30.99"/>
    <polygon class="cls-1" points="30.41 62.25 30.41 78.17 .34 78.17 10.19 62.23 15.63 62.24 8.88 73.15 8.65 73.54 17.11 73.54 17.11 62.26 21.74 62.26 21.74 73.54 25.79 73.54 25.79 62.25 30.41 62.25"/>
  </g>
  <g>
    <g>
      <polygon class="cls-1" points="125.81 36.28 125.81 46.7 142.4 46.7 142.4 51.33 125.81 51.33 125.81 61.63 142.4 61.63 142.4 66.26 121.19 66.26 121.19 31.66 142.4 31.66 142.4 36.28 125.81 36.28"/>
      <polygon class="cls-1" points="114.55 31.61 114.55 66.27 71.42 66.27 92.92 31.61 98.37 31.61 79.97 61.25 79.74 61.64 96.5 61.64 96.5 42.95 101.13 42.95 101.13 61.64 109.92 61.64 109.92 31.61 114.55 31.61"/>
      <path class="cls-1" d="M170.21,54.67c-.15-2-1.02-3.96-2.57-5.85l-.11-.12.08-.15c.97-1.81,2.01-4.65,1.48-7.96-.77-4.89-4.43-8.56-8.89-8.93h-12.18s0,34.6,0,34.6h13.21c.74-.08,1.44-.23,2.07-.46l.77-.27,6.19-10.11-.05-.75ZM152.64,36.28h7.25c2.27.24,4.21,2.36,4.63,5.04.34,2.11-.41,4-1.09,5.22l-.07.13h-10.72v-10.39ZM165.43,54.45l-4.33,7.06-.06.09-.1.03h-8.3v-10.33h11.01l.08.08c.89.99,1.47,1.96,1.73,2.87l.02.11-.05.09Z"/>
    </g>
    <g>
      <polygon class="cls-1" points="319.56 36.27 319.56 46.68 336.15 46.68 336.15 51.31 319.56 51.31 319.56 61.62 336.15 61.62 336.15 66.24 314.94 66.24 314.94 31.64 336.15 31.64 336.15 36.27 319.56 36.27"/>
      <polygon class="cls-1" points="309.32 46.68 309.32 66.25 288.1 66.25 288.1 31.63 308.97 31.63 308.97 36.26 292.73 36.26 292.73 61.62 304.69 61.62 304.69 51.31 298.83 51.31 298.83 46.68 309.32 46.68"/>
      <polygon class="cls-1" points="228.36 31.61 228.36 66.25 223.73 66.25 223.73 51.28 211.74 51.28 211.74 66.25 207.12 66.25 207.12 31.61 211.74 31.61 211.74 46.65 223.73 46.65 223.73 31.61 228.36 31.61"/>
      <polygon class="cls-1" points="179.58 61.23 179.35 61.62 200.9 61.62 200.9 66.24 171.08 66.24 192.3 31.64 200.9 31.64 200.9 36.27 194.89 36.27 194.81 36.39 179.58 61.23"/>
      <path class="cls-1" d="M356.67,32.37l-.68-.73h-14.21v34.6h14.17l.69-.73c1.48-1.58,6.32-7.41,6.39-16.4.06-9.16-4.85-15.13-6.36-16.74ZM353.98,61.52l-.07.09h-7.51v-25.34h7.53l.08.09c1.66,2.05,4.43,6.44,4.39,12.72-.05,6.14-2.79,10.43-4.42,12.44Z"/>
      <polygon class="cls-1" points="255.31 66.26 250.55 66.26 247.05 51.47 245.83 46.34 244.91 42.44 244.67 41.41 244.42 42.44 243.5 46.34 242.28 51.47 238.79 66.26 234.03 66.26 242.22 31.61 247.1 31.61 255.31 66.26"/>
      <path class="cls-1" d="M276.98,51.13l-.06-.17.15-.11.17-.13c.23-.18,5.7-4.36,4.9-10.09-.76-5.4-4.38-8.56-10.18-8.9-.89-.05-1.82-.08-2.95-.08-.86,0-1.72.02-2.57.03h-.32c-.93.03-1.86.05-2.78.05h-2.32v34.53h4.63v-15.06h6.44l.06.16,5.3,14.9h4.91l-5.38-15.13ZM274.98,46.57h-9.33v-10.22l.22-.02c.12-.01.23-.01.35-.01.94-.02,1.86-.04,2.77-.04,1,0,1.89.02,2.7.07,3.66.21,5.41,1.68,5.86,4.92.31,2.15-1.43,4.2-2.5,5.23l-.07.07Z"/>
    </g>
  </g>
</svg>