<?xml version="1.0" encoding="UTF-8"?>
<svg id="Regular_Logo" data-name="Regular Logo" xmlns="http://www.w3.org/2000/svg" xmlns:xlink="http://www.w3.org/1999/xlink" viewBox="0 0 363.38 97.86">
  <defs>
    <style>
      .cls-1 {
        fill: #222f2f;
      }

      .cls-2 {
        fill: url(#Default_Radial_Gradient_3);
      }
    </style>
    <radialGradient id="Default_Radial_Gradient_3" data-name="Default Radial Gradient 3" cx="42.48" cy="48.93" fx="42.48" fy="48.93" r="26.13" gradientUnits="userSpaceOnUse">
      <stop offset="0" stop-color="#ff9d0a"/>
      <stop offset=".19" stop-color="#f79509"/>
      <stop offset=".48" stop-color="#e17f06"/>
      <stop offset=".83" stop-color="#bd5d02"/>
      <stop offset="1" stop-color="#aa4a00"/>
    </radialGradient>
  </defs>
  <g>
    <path class="cls-1" d="M44.05,17.6v28.4h18.03l-21.17,34.26v-28.4h-18.03l21.17-34.26h0ZM49.05,0L13.91,56.86h22v41l35.14-56.86h-22V0h0Z"/>
    <polygon class="cls-1" points="74.17 35.87 54.18 35.87 54.18 20.66 83.62 20.66 80.45 25.79 59.31 25.79 59.31 30.74 77.39 30.74 74.17 35.87"/>
    <polygon class="cls-1" points="30.77 61.99 30.77 78.41 0 78.41 10.16 61.97 16.18 61.98 9.2 73.28 16.97 73.28 16.97 62 22.1 62 22.1 73.28 25.65 73.28 25.65 61.99 30.77 61.99"/>
    <polygon class="cls-2" points="40.91 51.86 22.87 51.86 44.05 17.6 44.05 46 62.08 46 40.91 80.25 40.91 51.86"/>
  </g>
  <g>
    <g>
      <polygon class="cls-1" points="126.17 36.52 126.17 46.44 142.76 46.44 142.76 51.57 126.17 51.57 126.17 61.37 142.76 61.37 142.76 66.5 121.05 66.5 121.05 31.4 142.76 31.4 142.76 36.52 126.17 36.52"/>
      <polygon class="cls-1" points="109.78 31.35 109.78 61.38 101.48 61.38 101.48 42.69 96.35 42.69 96.35 61.38 80.29 61.38 98.92 31.35 92.89 31.35 71.12 66.44 71.08 66.51 114.91 66.51 114.91 31.35 109.78 31.35"/>
      <path class="cls-1" d="M161.24,66.51h-13.37V31.4h12.45c4.57.38,8.33,4.14,9.12,9.15.54,3.39-.54,6.29-1.51,8.11,1.09,1.32,2.43,3.4,2.63,5.99l.06.83-6.29,10.26-.85.3c-.65.23-1.36.38-2.13.46h-.12ZM153,61.38h7.98s0,0,.01,0l4.33-7.06c-.31-1.12-1.09-2.13-1.67-2.77h-10.65v9.83ZM153,46.42h10.32c.61-1.08,1.4-2.97,1.07-5.06-.41-2.59-2.25-4.6-4.39-4.83h-7v9.89Z"/>
    </g>
    <g>
      <polygon class="cls-1" points="319.91 36.51 319.91 46.42 336.5 46.42 336.5 51.55 319.91 51.55 319.91 61.36 336.5 61.36 336.5 66.48 314.79 66.48 314.79 31.38 336.5 31.38 336.5 36.51 319.91 36.51"/>
      <polygon class="cls-1" points="309.67 66.5 287.95 66.5 287.95 31.38 309.33 31.38 309.33 36.51 293.08 36.51 293.08 61.37 304.55 61.37 304.55 51.56 298.69 51.56 298.69 46.43 309.67 46.43 309.67 66.5"/>
      <polygon class="cls-1" points="223.58 31.36 223.58 46.4 212.1 46.4 212.1 31.36 206.97 31.36 206.97 66.5 212.1 66.5 212.1 51.52 223.58 51.52 223.58 66.5 228.71 66.5 228.71 31.36 223.58 31.36"/>
      <polygon class="cls-1" points="201.26 66.49 170.74 66.49 192.26 31.39 201.26 31.39 201.26 36.51 195.13 36.51 179.9 61.36 201.26 61.36 201.26 66.49"/>
      <path class="cls-1" d="M356.17,66.49h-14.53V31.39h14.57l.76.81c1.52,1.63,6.49,7.66,6.42,16.92-.07,9.07-4.96,14.97-6.46,16.56l-.76.81ZM346.76,61.36h7.13c1.56-1.92,4.31-6.18,4.36-12.28.05-6.25-2.76-10.61-4.34-12.56h-7.16v24.85Z"/>
      <polygon class="cls-1" points="255.72 66.49 255.72 66.5 250.45 66.5 246.91 51.52 245.69 46.39 244.77 42.49 243.85 46.39 242.63 51.52 239.09 66.5 233.82 66.5 242.13 31.35 247.4 31.35 255.72 66.49"/>
      <path class="cls-1" d="M277.32,51.04l.17-.13c.24-.18,5.82-4.48,5-10.32-.78-5.53-4.48-8.77-10.41-9.12-1.99-.11-3.96-.07-5.86-.04-.93.02-1.86.04-2.78.04h-2.57v35.03h5.13v-15.06h6.02l5.36,15.06h5.44l-5.5-15.46ZM266,36.57c.11-.01.21-.01.32-.01,1.89-.04,3.68-.07,5.46.03,3.56.21,5.19,1.57,5.63,4.71.29,2.07-1.48,4.09-2.43,5.01h-8.98v-9.74Z"/>
    </g>
  </g>
</svg>