<svg width="32" height="32" viewBox="0 0 32 32" fill="none" xmlns="http://www.w3.org/2000/svg">
<mask id="mask0_3527_28725" style="mask-type:alpha" maskUnits="userSpaceOnUse" x="0" y="0" width="32" height="32">
<rect width="32" height="32" fill="#D9D9D9"/>
</mask>
<g mask="url(#mask0_3527_28725)">
<path d="M8.00002 27.9999C7.00002 27.9999 6.01113 27.7554 5.03335 27.2665C4.05558 26.7776 3.26669 26.1332 2.66669 25.3332C3.24446 25.3332 3.83335 25.1054 4.43335 24.6499C5.03335 24.1943 5.33335 23.5332 5.33335 22.6665C5.33335 21.5554 5.72224 20.611 6.50002 19.8332C7.2778 19.0554 8.22224 18.6665 9.33335 18.6665C10.4445 18.6665 11.3889 19.0554 12.1667 19.8332C12.9445 20.611 13.3334 21.5554 13.3334 22.6665C13.3334 24.1332 12.8111 25.3888 11.7667 26.4332C10.7222 27.4776 9.46669 27.9999 8.00002 27.9999ZM8.00002 25.3332C8.73335 25.3332 9.36113 25.0721 9.88335 24.5499C10.4056 24.0276 10.6667 23.3999 10.6667 22.6665C10.6667 22.2888 10.5389 21.9721 10.2834 21.7165C10.0278 21.461 9.71113 21.3332 9.33335 21.3332C8.95558 21.3332 8.63891 21.461 8.38335 21.7165C8.1278 21.9721 8.00002 22.2888 8.00002 22.6665C8.00002 23.1776 7.93891 23.6443 7.81669 24.0665C7.69446 24.4888 7.53335 24.8888 7.33335 25.2665C7.44446 25.311 7.55558 25.3332 7.66669 25.3332H8.00002ZM15.6667 19.9999L12 16.3332L23.9334 4.39987C24.1778 4.15542 24.4834 4.02765 24.85 4.01654C25.2167 4.00542 25.5334 4.1332 25.8 4.39987L27.6 6.19987C27.8667 6.46654 28 6.77765 28 7.1332C28 7.48876 27.8667 7.79987 27.6 8.06654L15.6667 19.9999Z" fill="#FFF7EB"/>
</g>
</svg>
