<svg width="32" height="32" viewBox="0 0 32 32" fill="none" xmlns="http://www.w3.org/2000/svg">
<mask id="mask0_3527_28741" style="mask-type:alpha" maskUnits="userSpaceOnUse" x="0" y="0" width="32" height="32">
<rect width="32" height="32" fill="#D9D9D9"/>
</mask>
<g mask="url(#mask0_3527_28741)">
<path d="M21.2333 30.6667C20.6555 30.6667 20.1111 30.5501 19.6 30.3168C19.0889 30.0834 18.6444 29.7556 18.2666 29.3334L11.5333 21.2667L13.0333 19.7334C13.4333 19.3334 13.9222 19.0834 14.5 18.9834C15.0778 18.8834 15.6222 18.9667 16.1333 19.2334L20 21.1667V9.33341H22.6666C24.1333 9.33341 25.3889 9.85564 26.4333 10.9001C27.4778 11.9445 28 13.2001 28 14.6667V25.3334C28 26.8001 27.4778 28.0556 26.4333 29.1001C25.3889 30.1445 24.1333 30.6667 22.6666 30.6667H21.2333ZM7.99998 29.3334C7.26665 29.3334 6.63887 29.0723 6.11665 28.5501C5.59442 28.0279 5.33331 27.4001 5.33331 26.6667V5.33341C5.33331 4.60008 5.59442 3.9723 6.11665 3.45008C6.63887 2.92786 7.26665 2.66675 7.99998 2.66675H20C20.7333 2.66675 21.3611 2.92786 21.8833 3.45008C22.4055 3.9723 22.6666 4.60008 22.6666 5.33341V9.33341H20V5.33341H7.99998V26.6667H16.0333L18.2666 29.3334H7.99998ZM14.95 8.95008C15.2055 8.69453 15.3333 8.37786 15.3333 8.00008C15.3333 7.6223 15.2055 7.30564 14.95 7.05008C14.6944 6.79453 14.3778 6.66675 14 6.66675C13.6222 6.66675 13.3055 6.79453 13.05 7.05008C12.7944 7.30564 12.6666 7.6223 12.6666 8.00008C12.6666 8.37786 12.7944 8.69453 13.05 8.95008C13.3055 9.20564 13.6222 9.33341 14 9.33341C14.3778 9.33341 14.6944 9.20564 14.95 8.95008ZM21.2333 28.0001H22.6666C23.4 28.0001 24.0278 27.7445 24.55 27.2334C25.0722 26.7223 25.3333 26.089 25.3333 25.3334V14.6667C25.3333 13.9334 25.0722 13.3056 24.55 12.7834C24.0278 12.2612 23.4 12.0001 22.6666 12.0001V25.5001L15.6 21.9334L20.2 27.5334C20.3333 27.689 20.4889 27.8056 20.6666 27.8834C20.8444 27.9612 21.0333 28.0001 21.2333 28.0001Z" fill="#FFF7EB"/>
</g>
</svg>
