<svg width="32" height="32" viewBox="0 0 32 32" fill="none" xmlns="http://www.w3.org/2000/svg">
<mask id="mask0_3527_28733" style="mask-type:alpha" maskUnits="userSpaceOnUse" x="0" y="0" width="32" height="32">
<rect width="32" height="32" fill="#D9D9D9"/>
</mask>
<g mask="url(#mask0_3527_28733)">
<path d="M13.9334 20.6666C14.4667 21.1999 15.1556 21.461 16 21.4499C16.8445 21.4388 17.4667 21.1333 17.8667 20.5333L25.3334 9.33325L14.1334 16.7999C13.5334 17.1999 13.2167 17.811 13.1834 18.6333C13.15 19.4555 13.4 20.1333 13.9334 20.6666ZM16 5.33325C17.3111 5.33325 18.5722 5.51659 19.7834 5.88325C20.9945 6.24992 22.1334 6.79992 23.2 7.53325L20.6667 9.13325C19.9334 8.75547 19.1722 8.47214 18.3834 8.28325C17.5945 8.09436 16.8 7.99992 16 7.99992C13.0445 7.99992 10.5278 9.03881 8.45002 11.1166C6.37224 13.1944 5.33335 15.711 5.33335 18.6666C5.33335 19.5999 5.46113 20.5221 5.71669 21.4333C5.97224 22.3444 6.33335 23.1999 6.80002 23.9999H25.2C25.7111 23.1555 26.0834 22.2777 26.3167 21.3666C26.55 20.4555 26.6667 19.511 26.6667 18.5333C26.6667 17.7333 26.5722 16.9555 26.3834 16.1999C26.1945 15.4444 25.9111 14.711 25.5334 13.9999L27.1334 11.4666C27.8 12.511 28.3278 13.6221 28.7167 14.7999C29.1056 15.9777 29.3111 17.1999 29.3334 18.4666C29.3556 19.7333 29.2111 20.9444 28.9 22.0999C28.5889 23.2555 28.1334 24.3555 27.5334 25.3999C27.2889 25.7999 26.9556 26.111 26.5334 26.3333C26.1111 26.5555 25.6667 26.6666 25.2 26.6666H6.80002C6.33335 26.6666 5.88891 26.5555 5.46669 26.3333C5.04447 26.111 4.71113 25.7999 4.46669 25.3999C3.88891 24.3999 3.44446 23.3388 3.13335 22.2166C2.82224 21.0944 2.66669 19.911 2.66669 18.6666C2.66669 16.8221 3.01669 15.0944 3.71669 13.4833C4.41669 11.8721 5.37224 10.461 6.58335 9.24992C7.79446 8.03881 9.21113 7.08325 10.8334 6.38325C12.4556 5.68325 14.1778 5.33325 16 5.33325Z" fill="#FFF7EB"/>
</g>
</svg>
