<?xml version="1.0" encoding="UTF-8"?>
<svg id="Other" xmlns="http://www.w3.org/2000/svg" xmlns:xlink="http://www.w3.org/1999/xlink" viewBox="0 0 85 85">
  <defs>
    <style>
      .cls-1 {
        fill: #222f2f;
      }

      .cls-2 {
        fill: url(#Default_Radial_Gradient_3);
      }
    </style>
    <radialGradient id="Default_Radial_Gradient_3" data-name="Default Radial Gradient 3" cx="43.17" cy="42.5" fx="43.17" fy="42.5" r="26.13" gradientUnits="userSpaceOnUse">
      <stop offset="0" stop-color="#ff9d0a"/>
      <stop offset=".19" stop-color="#f79509"/>
      <stop offset=".48" stop-color="#e17f06"/>
      <stop offset=".83" stop-color="#bd5d02"/>
      <stop offset="1" stop-color="#aa4a00"/>
    </radialGradient>
  </defs>
  <path class="cls-1" d="M44.74,11.17v28.4h18.03l-21.17,34.26v-28.4h-18.03L44.74,11.17h0ZM49.74-6.43L14.6,50.43h22v41l35.14-56.86h-22V-6.43h0Z"/>
  <polygon class="cls-1" points="74.86 29.44 54.87 29.44 54.87 14.23 84.31 14.23 81.14 19.36 60 19.36 60 24.31 78.08 24.31 74.86 29.44"/>
  <polygon class="cls-1" points="31.46 55.56 31.46 71.98 .69 71.98 10.85 55.54 16.87 55.55 9.89 66.85 17.66 66.85 17.66 55.57 22.79 55.57 22.79 66.85 26.34 66.85 26.34 55.56 31.46 55.56"/>
  <polygon class="cls-2" points="41.6 45.43 23.56 45.43 44.74 11.17 44.74 39.57 62.77 39.57 41.6 73.82 41.6 45.43"/>
</svg>